<svg width="25" height="17" viewBox="0 0 25 17" fill="none" xmlns="http://www.w3.org/2000/svg">
<path d="M23.8566 2.77427C23.584 1.7478 22.7808 0.939377 21.761 0.665028C19.9124 0.166504 12.5001 0.166504 12.5001 0.166504C12.5001 0.166504 5.08773 0.166504 3.23917 0.665028C2.21933 0.939421 1.41612 1.7478 1.14351 2.77427C0.648193 4.63482 0.648193 8.51668 0.648193 8.51668C0.648193 8.51668 0.648193 12.3985 1.14351 14.2591C1.41612 15.2856 2.21933 16.0603 3.23917 16.3346C5.08773 16.8332 12.5001 16.8332 12.5001 16.8332C12.5001 16.8332 19.9124 16.8332 21.761 16.3346C22.7808 16.0603 23.584 15.2856 23.8566 14.2591C24.3519 12.3985 24.3519 8.51668 24.3519 8.51668C24.3519 8.51668 24.3519 4.63482 23.8566 2.77427V2.77427ZM10.0758 12.0411V4.99224L16.2711 8.51676L10.0758 12.0411V12.0411Z" fill="white" fill-opacity="0.5"/>
</svg>
