<svg width="23" height="23" viewBox="0 0 23 23" fill="none" xmlns="http://www.w3.org/2000/svg">
<path d="M11.5049 5.88452C8.39941 5.88452 5.89453 8.3894 5.89453 11.4949C5.89453 14.6003 8.39941 17.1052 11.5049 17.1052C14.6104 17.1052 17.1152 14.6003 17.1152 11.4949C17.1152 8.3894 14.6104 5.88452 11.5049 5.88452ZM11.5049 15.1423C9.49805 15.1423 7.85742 13.5066 7.85742 11.4949C7.85742 9.48315 9.49316 7.84741 11.5049 7.84741C13.5166 7.84741 15.1523 9.48315 15.1523 11.4949C15.1523 13.5066 13.5117 15.1423 11.5049 15.1423V15.1423ZM18.6533 5.65503C18.6533 6.38257 18.0674 6.96362 17.3447 6.96362C16.6172 6.96362 16.0361 6.37769 16.0361 5.65503C16.0361 4.93237 16.6221 4.34644 17.3447 4.34644C18.0674 4.34644 18.6533 4.93237 18.6533 5.65503ZM22.3691 6.98315C22.2861 5.23022 21.8857 3.67749 20.6016 2.39819C19.3223 1.1189 17.7695 0.718506 16.0166 0.630615C14.21 0.528076 8.79492 0.528076 6.98828 0.630615C5.24023 0.713623 3.6875 1.11401 2.40332 2.39331C1.11914 3.67261 0.723633 5.22534 0.635742 6.97827C0.533203 8.78491 0.533203 14.1999 0.635742 16.0066C0.71875 17.7595 1.11914 19.3123 2.40332 20.5916C3.6875 21.8708 5.23535 22.2712 6.98828 22.3591C8.79492 22.4617 14.21 22.4617 16.0166 22.3591C17.7695 22.2761 19.3223 21.8757 20.6016 20.5916C21.8809 19.3123 22.2813 17.7595 22.3691 16.0066C22.4717 14.1999 22.4717 8.7898 22.3691 6.98315V6.98315ZM20.0352 17.9451C19.6543 18.9021 18.917 19.6394 17.9551 20.0251C16.5146 20.5964 13.0967 20.4646 11.5049 20.4646C9.91309 20.4646 6.49023 20.5916 5.05469 20.0251C4.09766 19.6443 3.36035 18.907 2.97461 17.9451C2.40332 16.5046 2.53516 13.0867 2.53516 11.4949C2.53516 9.90308 2.4082 6.48022 2.97461 5.04468C3.35547 4.08765 4.09277 3.35034 5.05469 2.9646C6.49512 2.39331 9.91309 2.52515 11.5049 2.52515C13.0967 2.52515 16.5195 2.39819 17.9551 2.9646C18.9121 3.34546 19.6494 4.08276 20.0352 5.04468C20.6064 6.48511 20.4746 9.90308 20.4746 11.4949C20.4746 13.0867 20.6064 16.5095 20.0352 17.9451Z" fill="white" fill-opacity="0.5"/>
</svg>
